<svg width="188" height="50" viewBox="0 0 188 50" fill="none" xmlns="http://www.w3.org/2000/svg">
<path d="M0 10.7C0 4.79055 4.79055 0 10.7 0H177.3C183.209 0 188 4.79055 188 10.7V39.3C188 45.2094 183.209 50 177.3 50H10.7C4.79055 50 0 45.2094 0 39.3V10.7Z" fill="#ED2E61"/>
<path d="M78.561 17.986V31H76.428V22.594C76.428 22.258 76.446 21.895 76.482 21.505L72.549 28.894C72.363 29.248 72.078 29.425 71.694 29.425H71.352C70.968 29.425 70.683 29.248 70.497 28.894L66.519 21.478C66.537 21.676 66.552 21.871 66.564 22.063C66.576 22.255 66.582 22.432 66.582 22.594V31H64.449V17.986H66.276C66.384 17.986 66.477 17.989 66.555 17.995C66.633 18.001 66.702 18.016 66.762 18.04C66.828 18.064 66.885 18.103 66.933 18.157C66.987 18.211 67.038 18.283 67.086 18.373L70.983 25.6C71.085 25.792 71.178 25.99 71.262 26.194C71.352 26.398 71.439 26.608 71.523 26.824C71.607 26.602 71.694 26.389 71.784 26.185C71.874 25.975 71.97 25.774 72.072 25.582L75.915 18.373C75.963 18.283 76.014 18.211 76.068 18.157C76.122 18.103 76.179 18.064 76.239 18.04C76.305 18.016 76.377 18.001 76.455 17.995C76.533 17.989 76.626 17.986 76.734 17.986H78.561ZM89.3083 21.766L84.2773 33.538C84.2113 33.694 84.1243 33.811 84.0163 33.889C83.9143 33.973 83.7553 34.015 83.5393 34.015H81.8833L83.6113 30.307L79.8763 21.766H81.8293C82.0033 21.766 82.1383 21.808 82.2343 21.892C82.3363 21.976 82.4113 22.072 82.4593 22.18L84.4213 26.968C84.4873 27.13 84.5413 27.292 84.5833 27.454C84.6313 27.616 84.6763 27.781 84.7183 27.949C84.7723 27.781 84.8263 27.616 84.8803 27.454C84.9343 27.286 84.9943 27.121 85.0603 26.959L86.9143 22.18C86.9623 22.06 87.0403 21.961 87.1483 21.883C87.2623 21.805 87.3883 21.766 87.5263 21.766H89.3083ZM96.5554 28.606C96.8074 28.912 97.0804 29.128 97.3744 29.254C97.6744 29.38 97.9984 29.443 98.3464 29.443C98.6824 29.443 98.9854 29.38 99.2554 29.254C99.5254 29.128 99.7534 28.936 99.9394 28.678C100.131 28.42 100.278 28.096 100.38 27.706C100.482 27.31 100.533 26.845 100.533 26.311C100.533 25.771 100.488 25.315 100.398 24.943C100.314 24.565 100.191 24.259 100.029 24.025C99.8674 23.791 99.6694 23.62 99.4354 23.512C99.2074 23.404 98.9464 23.35 98.6524 23.35C98.1904 23.35 97.7974 23.449 97.4734 23.647C97.1494 23.839 96.8434 24.112 96.5554 24.466V28.606ZM96.4384 23.026C96.8164 22.6 97.2454 22.255 97.7254 21.991C98.2054 21.727 98.7694 21.595 99.4174 21.595C99.9214 21.595 100.38 21.7 100.794 21.91C101.214 22.12 101.574 22.426 101.874 22.828C102.18 23.224 102.414 23.716 102.576 24.304C102.744 24.886 102.828 25.555 102.828 26.311C102.828 27.001 102.735 27.64 102.549 28.228C102.363 28.816 102.096 29.326 101.748 29.758C101.406 30.19 100.989 30.529 100.497 30.775C100.011 31.015 99.4654 31.135 98.8594 31.135C98.3434 31.135 97.9024 31.057 97.5364 30.901C97.1704 30.739 96.8434 30.517 96.5554 30.235V34.015H94.3324V21.766H95.6914C95.9794 21.766 96.1684 21.901 96.2584 22.171L96.4384 23.026ZM108.649 21.622C109.333 21.622 109.954 21.733 110.512 21.955C111.076 22.177 111.556 22.492 111.952 22.9C112.354 23.308 112.663 23.806 112.879 24.394C113.095 24.982 113.203 25.639 113.203 26.365C113.203 27.097 113.095 27.757 112.879 28.345C112.663 28.933 112.354 29.434 111.952 29.848C111.556 30.262 111.076 30.58 110.512 30.802C109.954 31.024 109.333 31.135 108.649 31.135C107.959 31.135 107.332 31.024 106.768 30.802C106.204 30.58 105.721 30.262 105.319 29.848C104.923 29.434 104.614 28.933 104.392 28.345C104.176 27.757 104.068 27.097 104.068 26.365C104.068 25.639 104.176 24.982 104.392 24.394C104.614 23.806 104.923 23.308 105.319 22.9C105.721 22.492 106.204 22.177 106.768 21.955C107.332 21.733 107.959 21.622 108.649 21.622ZM108.649 29.425C109.417 29.425 109.984 29.167 110.35 28.651C110.722 28.135 110.908 27.379 110.908 26.383C110.908 25.387 110.722 24.628 110.35 24.106C109.984 23.584 109.417 23.323 108.649 23.323C107.869 23.323 107.29 23.587 106.912 24.115C106.54 24.637 106.354 25.393 106.354 26.383C106.354 27.373 106.54 28.129 106.912 28.651C107.29 29.167 107.869 29.425 108.649 29.425ZM116.996 23.368C117.284 22.816 117.626 22.384 118.022 22.072C118.418 21.754 118.886 21.595 119.426 21.595C119.852 21.595 120.194 21.688 120.452 21.874L120.308 23.539C120.278 23.647 120.233 23.725 120.173 23.773C120.119 23.815 120.044 23.836 119.948 23.836C119.858 23.836 119.723 23.821 119.543 23.791C119.369 23.761 119.198 23.746 119.03 23.746C118.784 23.746 118.565 23.782 118.373 23.854C118.181 23.926 118.007 24.031 117.851 24.169C117.701 24.301 117.566 24.463 117.446 24.655C117.332 24.847 117.224 25.066 117.122 25.312V31H114.899V21.766H116.204C116.432 21.766 116.591 21.808 116.681 21.892C116.771 21.97 116.831 22.114 116.861 22.324L116.996 23.368ZM128.445 31V23.431H124.422V28.435C124.422 28.723 124.491 28.948 124.629 29.11C124.773 29.272 124.968 29.353 125.214 29.353C125.352 29.353 125.466 29.338 125.556 29.308C125.652 29.272 125.733 29.236 125.799 29.2C125.871 29.164 125.934 29.131 125.988 29.101C126.042 29.065 126.096 29.047 126.15 29.047C126.216 29.047 126.27 29.065 126.312 29.101C126.354 29.131 126.399 29.179 126.447 29.245L127.113 30.325C126.789 30.595 126.417 30.799 125.997 30.937C125.577 31.075 125.142 31.144 124.692 31.144C123.888 31.144 123.27 30.919 122.838 30.469C122.412 30.013 122.199 29.386 122.199 28.588V23.431H121.254C121.134 23.431 121.032 23.392 120.948 23.314C120.864 23.236 120.822 23.119 120.822 22.963V22.081L122.307 21.838L122.775 19.318C122.805 19.198 122.862 19.105 122.946 19.039C123.03 18.973 123.138 18.94 123.27 18.94H124.422V21.847H128.445V21.163C128.445 20.635 128.523 20.161 128.679 19.741C128.841 19.321 129.069 18.964 129.363 18.67C129.663 18.376 130.026 18.151 130.452 17.995C130.878 17.839 131.358 17.761 131.892 17.761C132.318 17.761 132.714 17.818 133.08 17.932L133.035 19.048C133.029 19.132 133.005 19.201 132.963 19.255C132.921 19.303 132.864 19.342 132.792 19.372C132.726 19.396 132.648 19.414 132.558 19.426C132.468 19.432 132.372 19.435 132.27 19.435C132.006 19.435 131.769 19.465 131.559 19.525C131.355 19.579 131.181 19.678 131.037 19.822C130.893 19.96 130.782 20.146 130.704 20.38C130.632 20.608 130.596 20.893 130.596 21.235V21.847H132.999V23.431H130.668V31H128.445ZM138.11 21.622C138.794 21.622 139.415 21.733 139.973 21.955C140.537 22.177 141.017 22.492 141.413 22.9C141.815 23.308 142.124 23.806 142.34 24.394C142.556 24.982 142.664 25.639 142.664 26.365C142.664 27.097 142.556 27.757 142.34 28.345C142.124 28.933 141.815 29.434 141.413 29.848C141.017 30.262 140.537 30.58 139.973 30.802C139.415 31.024 138.794 31.135 138.11 31.135C137.42 31.135 136.793 31.024 136.229 30.802C135.665 30.58 135.182 30.262 134.78 29.848C134.384 29.434 134.075 28.933 133.853 28.345C133.637 27.757 133.529 27.097 133.529 26.365C133.529 25.639 133.637 24.982 133.853 24.394C134.075 23.806 134.384 23.308 134.78 22.9C135.182 22.492 135.665 22.177 136.229 21.955C136.793 21.733 137.42 21.622 138.11 21.622ZM138.11 29.425C138.878 29.425 139.445 29.167 139.811 28.651C140.183 28.135 140.369 27.379 140.369 26.383C140.369 25.387 140.183 24.628 139.811 24.106C139.445 23.584 138.878 23.323 138.11 23.323C137.33 23.323 136.751 23.587 136.373 24.115C136.001 24.637 135.815 25.393 135.815 26.383C135.815 27.373 136.001 28.129 136.373 28.651C136.751 29.167 137.33 29.425 138.11 29.425ZM146.61 17.626V31H144.387V17.626H146.61ZM151.129 21.766V31H148.897V21.766H151.129ZM151.435 19.075C151.435 19.267 151.396 19.447 151.318 19.615C151.24 19.783 151.135 19.93 151.003 20.056C150.877 20.182 150.727 20.284 150.553 20.362C150.379 20.434 150.193 20.47 149.995 20.47C149.803 20.47 149.62 20.434 149.446 20.362C149.278 20.284 149.131 20.182 149.005 20.056C148.879 19.93 148.777 19.783 148.699 19.615C148.627 19.447 148.591 19.267 148.591 19.075C148.591 18.877 148.627 18.691 148.699 18.517C148.777 18.343 148.879 18.193 149.005 18.067C149.131 17.941 149.278 17.842 149.446 17.77C149.62 17.692 149.803 17.653 149.995 17.653C150.193 17.653 150.379 17.692 150.553 17.77C150.727 17.842 150.877 17.941 151.003 18.067C151.135 18.193 151.24 18.343 151.318 18.517C151.396 18.691 151.435 18.877 151.435 19.075ZM157.481 21.622C158.165 21.622 158.786 21.733 159.344 21.955C159.908 22.177 160.388 22.492 160.784 22.9C161.186 23.308 161.495 23.806 161.711 24.394C161.927 24.982 162.035 25.639 162.035 26.365C162.035 27.097 161.927 27.757 161.711 28.345C161.495 28.933 161.186 29.434 160.784 29.848C160.388 30.262 159.908 30.58 159.344 30.802C158.786 31.024 158.165 31.135 157.481 31.135C156.791 31.135 156.164 31.024 155.6 30.802C155.036 30.58 154.553 30.262 154.151 29.848C153.755 29.434 153.446 28.933 153.224 28.345C153.008 27.757 152.9 27.097 152.9 26.365C152.9 25.639 153.008 24.982 153.224 24.394C153.446 23.806 153.755 23.308 154.151 22.9C154.553 22.492 155.036 22.177 155.6 21.955C156.164 21.733 156.791 21.622 157.481 21.622ZM157.481 29.425C158.249 29.425 158.816 29.167 159.182 28.651C159.554 28.135 159.74 27.379 159.74 26.383C159.74 25.387 159.554 24.628 159.182 24.106C158.816 23.584 158.249 23.323 157.481 23.323C156.701 23.323 156.122 23.587 155.744 24.115C155.372 24.637 155.186 25.393 155.186 26.383C155.186 27.373 155.372 28.129 155.744 28.651C156.122 29.167 156.701 29.425 157.481 29.425Z" fill="white"/>
<g clip-path="url(#clip0)">
<path d="M39.6661 20.0753C39.3468 19.9604 39.0249 19.854 38.7004 19.7561C38.7542 19.5267 38.8039 19.2964 38.8496 19.0651C39.5806 15.3425 39.1026 12.3435 37.4704 11.3563C35.9054 10.4095 33.3459 11.3967 30.7609 13.7565C30.5062 13.9896 30.2572 14.2293 30.0139 14.4756C29.8511 14.3119 29.6854 14.1513 29.5169 13.994C26.8077 11.4706 24.0922 10.4073 22.4616 11.3975C20.8981 12.3469 20.435 15.1663 21.0932 18.6942C21.1587 19.0436 21.2326 19.391 21.3149 19.7366C20.9307 19.8511 20.5596 19.9731 20.2046 20.1029C17.0284 21.2645 15 23.0851 15 24.9734C15 26.9239 17.1774 28.8802 20.4858 30.0662C20.754 30.1619 21.0244 30.2506 21.297 30.3322C21.2085 30.7044 21.1299 31.0789 21.0613 31.4558C20.4338 34.9224 20.9239 37.675 22.4833 38.6186C24.0939 39.5928 26.7971 38.5914 29.4293 36.1777C29.6374 35.9869 29.8461 35.7852 30.0554 35.5724C30.3187 35.839 30.5891 36.0977 30.8663 36.3486C33.416 38.6502 35.9341 39.5796 37.4922 38.6335C39.1013 37.6563 39.6242 34.6993 38.9452 31.1016C38.8934 30.8268 38.8335 30.5464 38.7653 30.2603C38.9552 30.2016 39.1411 30.1407 39.3232 30.0776C42.7624 28.8824 45 26.9499 45 24.9734C45 23.0783 42.9062 21.2454 39.6661 20.0753ZM31.6023 14.7708C33.8171 12.7487 35.8871 11.9504 36.8303 12.521C37.8348 13.1288 38.2256 15.5797 37.5944 18.7938C37.553 19.0032 37.5081 19.2117 37.4595 19.4195C36.1379 19.1052 34.7979 18.8832 33.4483 18.7547C32.6751 17.5894 31.8279 16.4802 30.9124 15.4346C31.1371 15.2073 31.367 14.9861 31.6023 14.7708ZM23.858 26.5866C24.1293 27.1363 24.4128 27.6791 24.7085 28.215C25.0102 28.7615 25.3241 29.3002 25.6504 29.8312C24.7218 29.7255 23.799 29.5698 22.8856 29.3649C23.1504 28.4676 23.4768 27.535 23.858 26.5866ZM23.8565 23.4247C23.4833 22.4961 23.164 21.5831 22.9032 20.7015C23.7592 20.5005 24.6719 20.3363 25.623 20.2117C25.3047 20.7325 24.9981 21.261 24.7033 21.7972C24.409 22.3327 24.1267 22.8751 23.8565 23.4247ZM24.5378 25.0057C24.9326 24.1436 25.358 23.2979 25.8138 22.4687C26.2692 21.6399 26.7541 20.8304 27.2684 20.0396C28.1606 19.9689 29.0754 19.9318 30.0001 19.9318C30.929 19.9318 31.845 19.9692 32.7369 20.0405C33.2457 20.8294 33.7275 21.6364 34.1824 22.4615C34.6395 23.2883 35.0706 24.13 35.4757 24.9867C35.0749 25.8516 34.6453 26.7007 34.1866 27.534C33.7322 28.3622 33.2523 29.1742 32.7473 29.97C31.8572 30.0367 30.9373 30.0711 30 30.0711C29.0665 30.0711 28.1584 30.0406 27.2838 29.9812C26.7659 29.1876 26.2772 28.3744 25.8176 27.5414C25.3606 26.7135 24.9339 25.8683 24.5378 25.0057ZM35.2967 28.2057C35.5984 27.6567 35.8884 27.1009 36.1667 26.5382C36.548 27.4421 36.8843 28.3662 37.1742 29.3066C36.2503 29.5244 35.3162 29.6915 34.3757 29.8071C34.6928 29.2797 34.9998 28.7459 35.2967 28.2057ZM36.1545 23.4256C35.8773 22.8738 35.5896 22.3279 35.2915 21.788C34.9983 21.2566 34.6942 20.732 34.3793 20.2142C35.3365 20.3409 36.2536 20.5094 37.1147 20.7157C36.8383 21.6354 36.5178 22.5398 36.1545 23.4256ZM30.0143 16.396C30.6383 17.1096 31.2276 17.8557 31.7798 18.6317C30.5985 18.5731 29.4166 18.5729 28.234 18.6309C28.817 17.8246 29.414 17.0755 30.0143 16.396ZM23.1037 12.561C24.1074 11.9515 26.3267 12.8206 28.6658 14.9993C28.8153 15.1386 28.9655 15.2844 29.1159 15.4352C28.1951 16.4807 27.3414 17.589 26.5604 18.7529C25.2139 18.8795 23.8767 19.0976 22.5571 19.4055C22.4806 19.0842 22.4119 18.761 22.3509 18.4359C21.787 15.4131 22.1614 13.1332 23.1037 12.561ZM21.6409 29.0373C21.3922 28.9626 21.1453 28.8815 20.9003 28.7941C19.6298 28.3748 18.4437 27.7138 17.4013 26.8442C17.1026 26.6293 16.8492 26.3523 16.6566 26.0306C16.464 25.7088 16.3363 25.349 16.2815 24.9734C16.2815 23.8276 17.9102 22.3659 20.6265 21.3724C20.9675 21.2482 21.3117 21.1346 21.6591 21.0316C22.0624 22.3888 22.5509 23.7166 23.1213 25.0062C22.5437 26.3142 22.0492 27.6608 21.6409 29.0373ZM28.586 35.1654C27.6051 36.1105 26.4667 36.8581 25.2277 37.3709C24.9011 37.5349 24.5457 37.6269 24.1838 37.6411C23.8219 37.6554 23.4611 37.5917 23.1236 37.4539C22.1772 36.8814 21.784 34.6711 22.3205 31.7066C22.3843 31.3562 22.4573 31.0079 22.5396 30.6617C23.8724 30.962 25.2232 31.1672 26.5825 31.2757C27.3702 32.4462 28.2305 33.5611 29.1576 34.6133C28.9714 34.8022 28.7808 34.9862 28.586 35.1654ZM30.0498 33.6459C29.4424 32.9583 28.8365 32.1978 28.2448 31.3798C28.8191 31.4035 29.4042 31.4154 30 31.4155C30.6115 31.4155 31.2152 31.4014 31.811 31.3733C31.2613 32.1619 30.6735 32.9204 30.0498 33.6459ZM37.8322 35.5163C37.8045 35.8951 37.7031 36.2639 37.5341 36.5999C37.3652 36.936 37.1324 37.2321 36.85 37.47C35.9046 38.0441 33.8826 37.2978 31.7023 35.3295C31.4523 35.1039 31.2008 34.8634 30.9479 34.6081C31.8571 33.5522 32.6972 32.4332 33.4625 31.2585C34.8297 31.1375 36.1873 30.918 37.5257 30.6015C37.5868 30.8606 37.6409 31.1144 37.6881 31.3628C37.9787 32.7263 38.0275 34.1343 37.8322 35.5163ZM38.9202 28.8016C38.7563 28.8586 38.5878 28.9136 38.4163 28.9669C37.9967 27.6033 37.4892 26.2713 36.8971 24.9801C37.4668 23.7061 37.9546 22.3936 38.3572 21.0513C38.664 21.1447 38.9619 21.2429 39.249 21.3466C42.0252 22.349 43.7185 23.8313 43.7185 24.9734C43.7185 26.19 41.8896 27.7694 38.9202 28.8016Z" fill="white"/>
<path d="M30 22.1632C30.5298 22.1632 31.0478 22.328 31.4884 22.6368C31.9289 22.9456 32.2723 23.3845 32.4751 23.898C32.6778 24.4115 32.7309 24.9766 32.6275 25.5217C32.5242 26.0669 32.269 26.5676 31.8944 26.9607C31.5197 27.3537 31.0424 27.6213 30.5227 27.7298C30.003 27.8382 29.4644 27.7825 28.9748 27.5698C28.4853 27.3571 28.0669 26.9969 27.7726 26.5348C27.4782 26.0726 27.3211 25.5292 27.3211 24.9734C27.3211 24.2281 27.6034 23.5133 28.1057 22.9863C28.6081 22.4593 29.2895 22.1632 30 22.1632" fill="white"/>
</g>
<defs>
<clipPath id="clip0">
<rect width="30" height="28" fill="white" transform="translate(15 11)"/>
</clipPath>
</defs>
</svg>
